<?xml version="1.0" encoding="iso-8859-1"?>
<!-- Generator: Adobe Illustrator 17.1.0, SVG Export Plug-In . SVG Version: 6.00 Build 0)  -->
<!DOCTYPE svg PUBLIC "-//W3C//DTD SVG 1.1//EN" "http://www.w3.org/Graphics/SVG/1.1/DTD/svg11.dtd">
<svg version="1.1" id="Capa_1" xmlns="http://www.w3.org/2000/svg" xmlns:xlink="http://www.w3.org/1999/xlink" x="0px" y="0px"
	 viewBox="0 0 429 429" style="enable-background:new 0 0 429 429;" xml:space="preserve">
<g>
	<path d="M351.024,304.438c-0.316-4.895-1.36-9.647-3.057-14.141c0.024-0.248,0.038-0.5,0.038-0.754v-72.059
		c0-14.753-12.003-26.756-26.756-26.756c-4.872,0-9.44,1.315-13.379,3.601l-9.849-138.833C297.874,24.87,272.912,0,242.251,0
		h-55.502c-30.661,0-55.623,24.87-55.771,55.496l-9.849,138.833c-3.938-2.285-8.507-3.601-13.379-3.601
		c-14.753,0-26.756,12.003-26.756,26.756v72.059c0,0.254,0.014,0.506,0.038,0.754c-1.696,4.494-2.74,9.246-3.057,14.141
		c-0.069,0.407-0.104,0.825-0.104,1.252v1.971c0,0.427,0.035,0.845,0.104,1.252c0.781,12.098,5.943,23.355,14.666,31.891
		c9.232,9.033,21.432,14.008,34.351,14.008H148.1V414h-17.42c-4.143,0-7.5,3.357-7.5,7.5s3.357,7.5,7.5,7.5H298.32
		c4.143,0,7.5-3.357,7.5-7.5s-3.357-7.5-7.5-7.5H280.9v-59.19h21.107c12.919,0,25.118-4.975,34.351-14.008
		c8.723-8.535,13.885-19.793,14.666-31.891c0.069-0.407,0.104-0.825,0.104-1.252v-1.971
		C351.129,305.263,351.094,304.845,351.024,304.438z M321.25,205.729c6.482,0,11.756,5.273,11.756,11.756v52.074
		c-8.74-7.133-19.586-11.02-30.998-11.02h-10.584c11.1-10.201,18.07-24.827,18.07-41.055
		C309.494,211.002,314.768,205.729,321.25,205.729z M145.958,56.302c0.013-0.175,0.019-0.354,0.019-0.53
		c0-22.481,18.29-40.771,40.772-40.771h55.502c22.482,0,40.772,18.29,40.772,40.771c0,0.177,0.006,0.355,0.019,0.53l11.451,161.438
		c-0.138,22.365-18.375,40.518-40.771,40.518h-78.442c-22.397,0-40.635-18.152-40.772-40.518L145.958,56.302z M107.75,205.729
		c6.482,0,11.756,5.273,11.756,11.756c0,16.227,6.971,30.854,18.07,41.055h-10.584c-11.412,0-22.258,3.887-30.998,11.02v-52.074
		C95.994,211.002,101.268,205.729,107.75,205.729z M265.9,414H163.1v-59.19H265.9V414z M302.008,339.81H126.992
		c-18.324,0-33.587-14.849-34.107-33.136c0.52-18.287,15.783-33.136,34.107-33.136h175.016c18.324,0,33.587,14.849,34.107,33.136
		C335.595,324.962,320.332,339.81,302.008,339.81z"/>
	<path d="M194.629,111.349c1.465,1.465,3.384,2.196,5.303,2.196c1.919,0,3.84-0.732,5.304-2.197l5.977-5.978
		c0.422-0.422,0.775-0.885,1.076-1.37c0.724,0.104,1.459,0.177,2.212,0.177s1.488-0.073,2.212-0.177
		c0.301,0.485,0.654,0.948,1.076,1.37l5.977,5.978c1.465,1.465,3.384,2.197,5.304,2.197c1.919,0,3.839-0.732,5.303-2.196
		c2.93-2.929,2.93-7.678,0.001-10.606l-5.812-5.813c0.805-1.861,1.256-3.912,1.256-6.068c0-2.358-0.549-4.583-1.501-6.578
		c0.026-0.025,0.055-0.047,0.08-0.072l5.977-5.979c2.929-2.93,2.928-7.679-0.001-10.605c-2.932-2.932-7.681-2.93-10.606,0
		l-5.977,5.979c-0.616,0.617-1.095,1.316-1.452,2.061c-0.604-0.072-1.213-0.12-1.836-0.12s-1.232,0.048-1.836,0.12
		c-0.357-0.744-0.836-1.443-1.452-2.061l-5.977-5.979c-2.927-2.929-7.676-2.93-10.606,0c-2.929,2.927-2.93,7.676-0.001,10.605
		l5.977,5.979c0.025,0.025,0.054,0.047,0.08,0.072c-0.952,1.995-1.501,4.22-1.501,6.578c0,2.156,0.451,4.207,1.256,6.068
		l-5.812,5.813C191.699,103.671,191.699,108.42,194.629,111.349z"/>
	<path d="M194.628,208.761c1.465,1.464,3.385,2.196,5.304,2.196c1.919,0,3.839-0.732,5.304-2.196l5.977-5.977
		c0.422-0.423,0.776-0.886,1.076-1.372c0.725,0.105,1.459,0.178,2.212,0.178s1.487-0.072,2.212-0.178
		c0.3,0.486,0.654,0.949,1.076,1.372l5.977,5.977c1.465,1.464,3.385,2.196,5.304,2.196c1.919,0,3.839-0.732,5.304-2.196
		c2.929-2.93,2.929-7.677,0-10.607l-5.812-5.812c0.805-1.861,1.256-3.911,1.256-6.068c0-2.357-0.549-4.583-1.501-6.578
		c0.025-0.025,0.054-0.047,0.079-0.072l5.977-5.975c2.93-2.929,2.93-7.678,0.001-10.607c-2.929-2.93-7.678-2.929-10.607-0.001
		l-5.977,5.976c-0.617,0.617-1.096,1.318-1.453,2.062c-0.604-0.072-1.214-0.12-1.836-0.12s-1.232,0.048-1.836,0.12
		c-0.357-0.743-0.836-1.444-1.453-2.062l-5.977-5.976c-2.93-2.93-7.679-2.929-10.607,0.001c-2.929,2.929-2.929,7.678,0.001,10.607
		l5.977,5.975c0.025,0.025,0.054,0.047,0.079,0.072c-0.952,1.995-1.501,4.221-1.501,6.578c0,2.157,0.451,4.207,1.256,6.068
		l-5.812,5.812C191.699,201.084,191.699,205.831,194.628,208.761z"/>
</g>
<g>
</g>
<g>
</g>
<g>
</g>
<g>
</g>
<g>
</g>
<g>
</g>
<g>
</g>
<g>
</g>
<g>
</g>
<g>
</g>
<g>
</g>
<g>
</g>
<g>
</g>
<g>
</g>
<g>
</g>
</svg>
