<svg id="Layer_1" data-name="Layer 1" xmlns="http://www.w3.org/2000/svg" viewBox="0 0 1440 1918.77"><defs><style>.cls-1,.cls-2{fill:none;}.cls-1{stroke:#d92e2c;stroke-width:5.82px;}.cls-2{stroke:#231f20;stroke-width:7px;}</style></defs><title>fundo-bilheteira</title><path class="cls-1" d="M1263.82,287.9H1184V514h-79.79V287.9H1024V223.07h239.79Z"/><path class="cls-1" d="M1495.28,287.07H1370.2v47.79h116.36v61.51H1370.2V450H1499v64H1290.41V223.07h204.87Z"/><path class="cls-2" d="M372.53,1207.68a442.58,442.58,0,0,1,126,18.47,303.91,303.91,0,0,1,111.28,59.67q48.76,41.19,79.08,108t30.3,163.37q0,88.06-27.94,153.42T615.45,1819q-47.84,43.1-110.81,64.4t-132.11,21.3a418.15,418.15,0,0,1-125.48-19.41,312.94,312.94,0,0,1-111.28-61.56q-49.26-42.12-79.56-108.44t-30.3-160q0-90.91,28.41-156.74t75.76-108q47.35-42.13,110.34-62.5T372.53,1207.68Zm-.95,146.8q-35,0-63.92,13.26a144.38,144.38,0,0,0-50.2,38.35q-21.3,25.11-33.14,62.51t-11.84,85.71q0,97.55,40.72,150.58t118.38,53q34.1,0,63-12.78a141.65,141.65,0,0,0,50.2-37.41q21.3-24.62,33.62-62t12.31-87.61q0-94.68-40.25-149.16T371.58,1354.48Z"/></svg>