<svg id="Layer_1" data-name="Layer 1" xmlns="http://www.w3.org/2000/svg" viewBox="0 0 1440 839.12"><defs><style>.cls-1{fill:none;stroke:#d92e2c;stroke-width:5.49px;}.cls-2{fill:#1f1f1f;}</style></defs><title>fundo-sobre</title><path class="cls-1" d="M122.81,719.15H30.62L20.42,757.2h-76.5L31,482.59h93.76L211.86,757.2H133ZM76.52,537.51,45.92,661.09h61.2Z"/><path class="cls-1" d="M327.59,482.59a234,234,0,0,1,56.88,6.86,138.29,138.29,0,0,1,48.65,22.37q21.18,15.49,33.93,41T479.8,616q0,40.41-12.16,67.48t-32,43.55a118.21,118.21,0,0,1-44.92,23.34,192.4,192.4,0,0,1-51,6.86H232.26V482.59Zm-20,59.24V698h32.17a80.33,80.33,0,0,0,22.75-3.34,45.41,45.41,0,0,0,20.21-12.55Q391.53,672.85,397,657t5.49-41q0-36.48-16.87-55.31t-56.49-18.83Z"/><path class="cls-1" d="M708.91,543H590.82v45.12H700.67v58.06H590.82v50.61H712.44V757.2H515.5V482.59H708.91Z"/><path class="cls-2" d="M788.93,676.39A42.12,42.12,0,0,1,806,679.92a45.16,45.16,0,0,1,13.92,9.41,46,46,0,0,1,9.42,13.74,40.66,40.66,0,0,1,3.53,16.86,39.76,39.76,0,0,1-3.53,16.48,45.65,45.65,0,0,1-9.42,13.73A45.19,45.19,0,0,1,806,759.56a42.12,42.12,0,0,1-17.07,3.53,41,41,0,0,1-16.67-3.53,47.66,47.66,0,0,1-14.13-9.42,44.12,44.12,0,0,1-9.61-13.73A39.76,39.76,0,0,1,745,719.93a40.66,40.66,0,0,1,3.53-16.86,44.4,44.4,0,0,1,9.61-13.74,47.63,47.63,0,0,1,14.13-9.41A41,41,0,0,1,788.93,676.39Z"/></svg>