<svg id="Layer_1" data-name="Layer 1" xmlns="http://www.w3.org/2000/svg" viewBox="0 0 1440 1387.11"><defs><style>.cls-1{fill:none;stroke:#d92e2c;stroke-width:5.49px;}.cls-2{fill:#1f1f1f;}</style></defs><title>fundo-sobre</title><path class="cls-1" d="M122.81,809.15H30.62L20.42,847.2h-76.5L31,572.59h93.76l87.1,274.61H133ZM76.52,627.51,45.92,751.09h61.2Z"/><path class="cls-1" d="M327.59,572.59a234,234,0,0,1,56.88,6.86,138.23,138.23,0,0,1,48.65,22.37q21.18,15.49,33.93,41T479.8,706q0,40.41-12.16,67.48t-32,43.55a118.32,118.32,0,0,1-44.92,23.34,192.31,192.31,0,0,1-51,6.86H232.26V572.59Zm-20,59.24V788h32.17a80.4,80.4,0,0,0,22.75-3.34,45.43,45.43,0,0,0,20.21-12.55q8.8-9.25,14.28-25.11t5.49-41q0-36.48-16.87-55.31t-56.49-18.83Z"/><path class="cls-1" d="M708.91,633H590.82v45.12H700.67v58.06H590.82v50.61H712.44V847.2H515.5V572.59H708.91Z"/><path class="cls-2" d="M788.93,766.39A42.14,42.14,0,0,1,806,769.92a45.16,45.16,0,0,1,13.92,9.41,46,46,0,0,1,9.42,13.74,40.61,40.61,0,0,1,3.53,16.86,39.86,39.86,0,0,1-3.53,16.48A44.93,44.93,0,0,1,806,849.56a42.14,42.14,0,0,1-17.07,3.53,41.1,41.1,0,0,1-16.67-3.53,47.67,47.67,0,0,1-14.13-9.42,44.17,44.17,0,0,1-9.61-13.73A39.69,39.69,0,0,1,745,809.93a40.61,40.61,0,0,1,3.53-16.86,44.33,44.33,0,0,1,9.61-13.74,47.64,47.64,0,0,1,14.13-9.41A41,41,0,0,1,788.93,766.39Z"/></svg>