<svg width="81" height="81" viewBox="0 0 81 81" fill="none" xmlns="http://www.w3.org/2000/svg">
<path d="M37.141 41.8455L37.0652 41.8455L36.9898 41.8532L16.5128 43.9415V35.7934C16.5128 30.6645 13.2104 26.522 8.50427 25.6951V23.5884C8.50427 12.3271 17.6352 3.19623 28.8964 3.19623H52.3823C63.6467 3.19623 72.776 12.3271 72.776 23.5884V25.5869C67.5086 26.1559 63.1658 30.5178 63.1658 35.7934V43.9061L44.1022 41.8493L44.0214 41.8406L43.9402 41.8406L37.141 41.8455ZM51.5502 16.3455C51.5502 14.5391 50.0849 13.0772 48.2819 13.0772C46.4764 13.0772 45.0136 14.54 45.0136 16.3455C45.0136 18.1509 46.4764 19.6137 48.2819 19.6137C50.0874 19.6137 51.5502 18.1509 51.5502 16.3455ZM51.5502 32.3625C51.5502 30.5562 50.0849 29.0942 48.2819 29.0942C46.4764 29.0942 45.0136 30.5571 45.0136 32.3625C45.0136 34.168 46.4764 35.6308 48.2819 35.6308C50.0874 35.6308 51.5502 34.168 51.5502 32.3625ZM35.5331 16.3455C35.5331 14.54 34.0703 13.0772 32.2648 13.0772C30.4593 13.0772 28.9965 14.54 28.9965 16.3455C28.9965 18.1509 30.4593 19.6137 32.2648 19.6137C34.0703 19.6137 35.5331 18.1509 35.5331 16.3455ZM35.5331 32.3625C35.5331 30.5571 34.0703 29.0942 32.2648 29.0942C30.4593 29.0942 28.9965 30.5571 28.9965 32.3625C28.9965 34.168 30.4593 35.6308 32.2648 35.6308C34.0703 35.6308 35.5331 34.168 35.5331 32.3625Z" stroke="black" stroke-width="3"/>
<path d="M72.7776 53.4682C71.9339 53.1992 71.0346 53.0526 70.1004 53.0526H9.57982C9.2134 53.0526 8.85517 53.0774 8.50587 53.1233V42.9274V41.6179L7.20839 41.4411L6.51485 41.3466L6.51357 41.3465C4.78261 41.1121 3.55951 40.4642 2.76872 39.5827C1.98177 38.7054 1.5 37.4603 1.5 35.795C1.5 32.4576 3.81794 30.1289 6.76882 30.1273L72.7776 53.4682ZM72.7776 53.4682V42.9242V41.6147L74.0751 41.4379L74.7687 41.3434L74.77 41.3433C76.8933 41.0558 77.9928 40.2053 78.6074 39.2879C79.2618 38.3112 79.4999 37.0571 79.5 35.793C79.4974 32.5787 77.0462 30.1241 73.9445 30.1241C70.5854 30.1241 67.7691 32.8968 67.7691 35.7918V47.3593V49.0303L66.1078 48.8506L43.7762 46.436L37.3009 46.4423L13.5637 48.8692L11.9111 49.0381V47.3769V35.795C11.9111 32.4281 9.62169 30.1277 6.76944 30.1273L72.7776 53.4682Z" stroke="black" stroke-width="3"/>
<path d="M13.9398 72.0697H18.4186L16.1884 76.3945L13.9398 72.0697Z" stroke="black" stroke-width="3"/>
<path d="M68.7703 72.0696L66.5399 76.3944L64.2923 72.0696H68.7703Z" stroke="black" stroke-width="3"/>
<path d="M9.57987 57.6543H70.1004C72.4575 57.6543 74.3778 59.574 74.3778 61.9333V63.1906C74.3778 65.548 72.4578 67.468 70.1004 67.468H52.3839H28.8965H9.57987C7.22223 67.468 5.3009 65.5477 5.3009 63.189V61.9317C5.3009 59.5748 7.22196 57.6543 9.57987 57.6543Z" stroke="black" stroke-width="3"/>
</svg>
