<?xml version="1.0" encoding="utf-8"?>
<!-- Generator: Adobe Illustrator 23.0.6, SVG Export Plug-In . SVG Version: 6.00 Build 0)  -->
<svg version="1.1" id="Capa_1" xmlns="http://www.w3.org/2000/svg" xmlns:xlink="http://www.w3.org/1999/xlink" x="0px" y="0px"
	 viewBox="0 0 50.6 50.6" style="enable-background:new 0 0 50.6 50.6;" xml:space="preserve">
<style type="text/css">
	.st0{fill:none;stroke:#010002;stroke-width:1.8068;stroke-miterlimit:10;}
	.st1{fill:none;stroke:#010002;stroke-width:1.8782;stroke-miterlimit:10;}
	.st2{fill:none;stroke:#010002;stroke-width:1.7108;stroke-miterlimit:10;}
	.st3{fill:none;stroke:#010002;stroke-width:1.7358;stroke-miterlimit:10;}
</style>
<g>
	<path class="st0" d="M11.6,21.4v5.5l11.8-1.3l3.6,0l11.1,1.3v-5.5c0-2.7,2.3-4.9,5-4.9c0.1,0,0.1,0,0.2,0v-1.9
		c0-6.8-5.2-12.3-11.7-12.3H19c-6.5,0-11.7,5.5-11.7,12.3v1.9C9.7,16.5,11.6,18.6,11.6,21.4z M29.4,9.4c0.5,0,0.9,0.4,0.9,1
		c0,0.6-0.4,1-0.9,1s-0.9-0.4-0.9-1C28.4,9.9,28.9,9.4,29.4,9.4z M29.4,18.4c0.5,0,0.9,0.4,0.9,1c0,0.6-0.4,1-0.9,1s-0.9-0.4-0.9-1
		C28.4,18.9,28.9,18.4,29.4,18.4z M20.8,9.4c0.5,0,0.9,0.4,0.9,1c0,0.6-0.4,1-0.9,1c-0.5,0-0.9-0.4-0.9-1
		C19.9,9.9,20.3,9.4,20.8,9.4z M20.8,18.4c0.5,0,0.9,0.4,0.9,1c0,0.6-0.4,1-0.9,1c-0.5,0-0.9-0.4-0.9-1
		C19.9,18.9,20.3,18.4,20.8,18.4z"/>
	<path class="st1" d="M7.2,33.9h35.5c0.9,0,1.8,0.3,2.4,0.8v-7.6l0.4-0.1c2.9-0.4,3.5-2.5,3.5-4.1c0-2.4-1.8-4.2-4.1-4.2
		c-2.4,0-4.5,2-4.5,4.2v6.8l-13.1-1.4l-3.9,0l-14,1.4v-6.8c0-2.4-1.7-4.2-3.9-4.2c-2.3,0-4,1.8-4,4.2c0,2.3,1.3,3.8,3.7,4.1l0.4,0.1
		v7.1C6.1,34,6.6,33.9,7.2,33.9z"/>
	<path class="st2" d="M8.4,44.7l2.2,3.2c0.2,0.2,0.3,0.5,0.5,0.5c0.1,0,0.1,0,0.2-0.1l2.6-3.7H8.3C8.3,44.7,8.3,44.7,8.4,44.7z"/>
	<path class="st2" d="M37.8,44.7c0,0,0.1,0.1,0.1,0.1l2.2,3.1c0.2,0.2,0.3,0.5,0.5,0.5c0.1,0,0.1,0,0.2-0.1l2.6-3.7
		c-0.2,0-0.5,0.1-0.7,0.1C42.6,44.7,37.8,44.7,37.8,44.7z"/>
	<path class="st3" d="M42.6,36.4H7.2c-1.9,0-3.4,1.2-3.4,2.7v0.6c0,1.5,1.5,2.7,3.4,2.7h11.3h13.8h10.4c1.9,0,3.4-1.2,3.4-2.7v-0.6
		C46,37.6,44.5,36.4,42.6,36.4z"/>
</g>
</svg>
